<?xml version="1.0" encoding="UTF-8"?>
<svg version="1.1" xmlns="http://www.w3.org/2000/svg" width="192" height="192">
<path d="M0 0 C63.36 0 126.72 0 192 0 C192 63.36 192 126.72 192 192 C128.64 192 65.28 192 0 192 C0 128.64 0 65.28 0 0 Z " fill="#0A313A" transform="translate(0,0)"/>
<path d="M0 0 C0.99 0 1.98 0 3 0 C3 25.41 3 50.82 3 77 C2.01 77 1.02 77 0 77 C0 64.79 0 52.58 0 40 C-8.91 40 -17.82 40 -27 40 C-27 52.21 -27 64.42 -27 77 C-27.99 77 -28.98 77 -30 77 C-30 51.92 -30 26.84 -30 1 C-29.01 1 -28.02 1 -27 1 C-27 12.88 -27 24.76 -27 37 C-18.09 37 -9.18 37 0 37 C0 24.79 0 12.58 0 0 Z " fill="#D6DAD4" transform="translate(89,52)"/>
<path d="M0 0 C3.82965008 3.72614602 4.58649697 6.72783638 5 12 C4.01 12 3.02 12 2 12 C1.731875 10.906875 1.46375 9.81375 1.1875 8.6875 C-0.07108677 4.66943394 -0.07108677 4.66943394 -3 2 C-7.33645292 0.55451569 -11.47332935 0.32857995 -16 1 C-19.08798674 3.25057567 -19.08798674 3.25057567 -21 6 C-21.33 6.33 -21.66 6.66 -22 7 C-22.51964726 13.42563821 -23.00363028 19.66182629 -19 25 C-14.92812116 29.07187884 -10.54944855 32.64678935 -5.875 36 C-1.18946043 39.4460782 4.09002189 43.69479216 5.6796875 49.46875 C6.5256644 56.15403089 6.83201081 62.82703708 2.89453125 68.62890625 C-0.15144268 72.51838065 -2.6390078 74.61872176 -7.515625 75.40625 C-13.79482977 75.62153702 -17.60660682 74.88893178 -22.40625 70.71875 C-25.89025241 66.9614925 -27 64.0792342 -27 59 C-26.01 59 -25.02 59 -24 59 C-23.62875 60.2375 -23.2575 61.475 -22.875 62.75 C-21.67142647 65.89266422 -20.90035706 67.09489804 -18.375 69.5 C-14.06289235 71.41649229 -10.64461444 71.83087915 -6 71 C-1.92704129 68.92649375 0.37200653 67.25782907 2 63 C2.62671741 57.35954333 2.8415003 51.93910939 0.5625 46.6875 C-4.29552067 41.59250272 -9.4739362 37.04994995 -15.1875 32.9375 C-20.09714648 29.33381949 -24.93499059 25.23143806 -26 19 C-26.69383938 12.85205615 -27.02499846 7.57249784 -23.3125 2.375 C-17.14592791 -4.53729709 -7.66683881 -5.17065873 0 0 Z " fill="#DCDFD9" transform="translate(129,55)"/>
<path d="M0 0 C5.76219112 -0.34573147 10.04096075 -0.34446833 15 3 C18.82965008 6.72614602 19.58649697 9.72783638 20 15 C19.01 15 18.02 15 17 15 C16.731875 13.906875 16.46375 12.81375 16.1875 11.6875 C14.9480433 7.6401605 14.9480433 7.6401605 12 5 C8.1085476 3.0542738 4.29806579 2.5056548 0 2 C0 1.34 0 0.68 0 0 Z " fill="#E1E3DC" transform="translate(114,52)"/>
<path d="M0 0 C3.72643889 0.57910875 5.540119 2.12870948 8.25 4.6875 C12.31052511 8.42479923 16.52269195 11.77926614 21 15 C20.01 15.66 19.02 16.32 18 17 C13.42052749 13.51239247 8.88739442 9.97769562 4.5 6.25 C3.8503125 5.69828125 3.200625 5.1465625 2.53125 4.578125 C1 3 1 3 0 0 Z " fill="#E4E5DE" transform="translate(106,79)"/>
<path d="M0 0 C0.99 0 1.98 0 3 0 C3.33 1.216875 3.66 2.43375 4 3.6875 C5.64326672 8.07992857 7.88198072 9.8741086 11.92578125 12.1015625 C14.59014892 13.25562006 17.11033364 13.78327502 20 14 C20 14.33 20 14.66 20 15 C9.25766645 15.86015126 9.25766645 15.86015126 5.5 12.875 C1.80383371 8.62440877 0 5.68605418 0 0 Z " fill="#E7E8E0" transform="translate(102,114)"/>
<path d="M0 0 C0.33 1.32 0.66 2.64 1 4 C-2.34939881 6.02558881 -4.86962551 6.21738987 -8.75 6.125 C-9.73484375 6.10695312 -10.7196875 6.08890625 -11.734375 6.0703125 C-12.85585937 6.03550781 -12.85585937 6.03550781 -14 6 C-11.67459062 3.26334459 -9.94458185 2.51055025 -6.4375 1.875 C-3.11294614 1.25868689 -3.11294614 1.25868689 0 0 Z " fill="#CACECA" transform="translate(127,124)"/>
<path d="M0 0 C0.99 0 1.98 0 3 0 C2.52797514 4.24822374 0.03344482 6.19989709 -3 9 C-2.44271087 5.65626525 -1.64826111 2.96687001 0 0 Z " fill="#DADDD6" transform="translate(131,118)"/>
<path d="M0 0 C0.99 0 1.98 0 3 0 C3.66 2.31 4.32 4.62 5 7 C4.01 7.33 3.02 7.66 2 8 C0.23537317 4.91190305 0 3.76687864 0 0 Z " fill="#DADDD8" transform="translate(102,114)"/>
<path d="M0 0 C0.90105469 0.11085937 1.80210938 0.22171875 2.73046875 0.3359375 C3.76107422 0.47902344 3.76107422 0.47902344 4.8125 0.625 C4.8125 0.955 4.8125 1.285 4.8125 1.625 C1.83398438 1.96679688 1.83398438 1.96679688 -1.14453125 2.30859375 C-3.38146393 2.59670735 -3.38146393 2.59670735 -6.1875 3.625 C-6.8475 2.965 -7.5075 2.305 -8.1875 1.625 C-4.73535147 -0.67643236 -3.95270676 -0.51333854 0 0 Z " fill="#CED1CB" transform="translate(116.1875,53.375)"/>
<path d="M0 0 C2.97 0 5.94 0 9 0 C9.33 0.99 9.66 1.98 10 3 C6.7 2.67 3.4 2.34 0 2 C0 1.34 0 0.68 0 0 Z " fill="#ECEDE5" transform="translate(114,52)"/>
<path d="M0 0 C2 2 2 2 2.125 4.625 C2.08375 5.40875 2.0425 6.1925 2 7 C1.01 7 0.02 7 -1 7 C-1.33 5.02 -1.66 3.04 -2 1 C-1.34 0.67 -0.68 0.34 0 0 Z " fill="#D1D5D1" transform="translate(132,60)"/>
</svg>
